<svg xmlns="http://www.w3.org/2000/svg" xmlns:xlink="http://www.w3.org/1999/xlink" width="234" height="217" viewBox="0 0 234 217"><defs><filter id="a"><feOffset dx="3" dy="3" input="SourceAlpha"/><feGaussianBlur stdDeviation="1" result="b"/><feFlood flood-color="#fff" flood-opacity="0.161" result="c"/><feComposite operator="out" in="SourceGraphic" in2="b"/><feComposite operator="in" in="c"/><feComposite operator="in" in2="SourceGraphic"/></filter><filter id="d"><feOffset dx="3" dy="3" input="SourceAlpha"/><feGaussianBlur stdDeviation="1" result="e"/><feFlood flood-color="#fff" flood-opacity="0.161" result="f"/><feComposite operator="out" in="SourceGraphic" in2="e"/><feComposite operator="in" in="f"/><feComposite operator="in" in2="SourceGraphic"/></filter><filter id="g"><feOffset dx="3" dy="3" input="SourceAlpha"/><feGaussianBlur stdDeviation="1" result="h"/><feFlood flood-color="#fff" flood-opacity="0.161" result="i"/><feComposite operator="out" in="SourceGraphic" in2="h"/><feComposite operator="in" in="i"/><feComposite operator="in" in2="SourceGraphic"/></filter><filter id="j"><feOffset dx="3" dy="3" input="SourceAlpha"/><feGaussianBlur stdDeviation="1" result="k"/><feFlood flood-color="#fff" flood-opacity="0.161" result="l"/><feComposite operator="out" in="SourceGraphic" in2="k"/><feComposite operator="in" in="l"/><feComposite operator="in" in2="SourceGraphic"/></filter><filter id="m"><feOffset dx="3" dy="3" input="SourceAlpha"/><feGaussianBlur stdDeviation="1" result="n"/><feFlood flood-color="#fff" flood-opacity="0.161" result="o"/><feComposite operator="out" in="SourceGraphic" in2="n"/><feComposite operator="in" in="o"/><feComposite operator="in" in2="SourceGraphic"/></filter><filter id="p"><feOffset dx="3" dy="3" input="SourceAlpha"/><feGaussianBlur stdDeviation="1" result="q"/><feFlood flood-color="#fff" flood-opacity="0.161" result="r"/><feComposite operator="out" in="SourceGraphic" in2="q"/><feComposite operator="in" in="r"/><feComposite operator="in" in2="SourceGraphic"/></filter><filter id="s"><feOffset dx="3" dy="3" input="SourceAlpha"/><feGaussianBlur stdDeviation="1" result="t"/><feFlood flood-color="#fff" flood-opacity="0.161" result="u"/><feComposite operator="out" in="SourceGraphic" in2="t"/><feComposite operator="in" in="u"/><feComposite operator="in" in2="SourceGraphic"/></filter><filter id="v"><feOffset dx="3" dy="3" input="SourceAlpha"/><feGaussianBlur stdDeviation="1" result="w"/><feFlood flood-color="#fff" flood-opacity="0.161" result="x"/><feComposite operator="out" in="SourceGraphic" in2="w"/><feComposite operator="in" in="x"/><feComposite operator="in" in2="SourceGraphic"/></filter><clipPath id="z"><rect width="234" height="217"/></clipPath></defs><g id="y" clip-path="url(#z)"><path d="M228.2,108.292C228.2,50.166,177.786,3,115.6,3S3,50.166,3,108.292,53.414,213.585,115.6,213.585s112.6-47.166,112.6-105.292" transform="translate(0 0.208)" fill="rgba(225,43,43,0)" stroke="#fd695e" stroke-miterlimit="10" stroke-width="6"/><ellipse cx="100.875" cy="94.331" rx="100.875" ry="94.331" transform="translate(14.724 14.168)" fill="#e5e2bc"/><g data-type="innerShadowGroup"><path d="M50.493,178.809c0,.731-.452,1.329-1,1.329s-1-.6-1-1.329v-52.48c0-.731.452-1.329,1-1.329s1,.6,1,1.329Z" transform="translate(-15.421 -41.079)" fill="#222d39"/><g transform="matrix(1, 0, 0, 1, 0, 0)" filter="url(#a)"><path d="M50.493,178.809c0,.731-.452,1.329-1,1.329s-1-.6-1-1.329v-52.48c0-.731.452-1.329,1-1.329s1,.6,1,1.329Z" transform="translate(-15.42 -41.08)" fill="#fff"/></g></g><g data-type="innerShadowGroup"><path d="M82.993,188.6c0,.731-.452,1.329-1,1.329s-1-.6-1-1.329V78.329C81,77.6,81.452,77,82,77s1,.6,1,1.329Z" transform="translate(-26.331 -24.966)" fill="#222d39"/><g transform="matrix(1, 0, 0, 1, 0, 0)" filter="url(#d)"><path d="M82.993,188.6c0,.731-.452,1.329-1,1.329s-1-.6-1-1.329V78.329C81,77.6,81.452,77,82,77s1,.6,1,1.329Z" transform="translate(-26.33 -24.97)" fill="#fff"/></g></g><g data-type="innerShadowGroup"><path d="M117.493,200.8c0,.731-.452,1.329-1,1.329s-1-.6-1-1.329V51.329c0-.731.452-1.329,1-1.329s1,.6,1,1.329Z" transform="translate(-37.912 -15.902)" fill="#222d39"/><g transform="matrix(1, 0, 0, 1, 0, 0)" filter="url(#g)"><path d="M117.493,200.8c0,.731-.452,1.329-1,1.329s-1-.6-1-1.329V51.329c0-.731.452-1.329,1-1.329s1,.6,1,1.329Z" transform="translate(-37.91 -15.9)" fill="#fff"/></g></g><g data-type="innerShadowGroup"><path d="M152.493,188.8c0,.731-.452,1.329-1,1.329s-1-.6-1-1.329V39.329c0-.731.452-1.329,1-1.329s1,.6,1,1.329Z" transform="translate(-49.661 -11.874)" fill="#222d39"/><g transform="matrix(1, 0, 0, 1, 0, 0)" filter="url(#j)"><path d="M152.493,188.8c0,.731-.452,1.329-1,1.329s-1-.6-1-1.329V39.329c0-.731.452-1.329,1-1.329s1,.6,1,1.329Z" transform="translate(-49.66 -11.87)" fill="#fff"/></g></g><g data-type="innerShadowGroup"><path d="M193.493,188.8c0,.731-.452,1.329-1,1.329s-1-.6-1-1.329V39.329c0-.731.452-1.329,1-1.329s1,.6,1,1.329Z" transform="translate(-63.425 -11.874)" fill="#222d39"/><g transform="matrix(1, 0, 0, 1, 0, 0)" filter="url(#m)"><path d="M193.493,188.8c0,.731-.452,1.329-1,1.329s-1-.6-1-1.329V39.329c0-.731.452-1.329,1-1.329s1,.6,1,1.329Z" transform="translate(-63.43 -11.87)" fill="#fff"/></g></g><g data-type="innerShadowGroup"><path d="M229.493,197.8c0,.731-.452,1.329-1,1.329s-1-.6-1-1.329V48.329c0-.731.452-1.329,1-1.329s1,.6,1,1.329Z" transform="translate(-75.51 -14.895)" fill="#222d39"/><g transform="matrix(1, 0, 0, 1, 0, 0)" filter="url(#p)"><path d="M229.493,197.8c0,.731-.452,1.329-1,1.329s-1-.6-1-1.329V48.329c0-.731.452-1.329,1-1.329s1,.6,1,1.329Z" transform="translate(-75.51 -14.9)" fill="#fff"/></g></g><g data-type="innerShadowGroup"><path d="M264.993,188.6c0,.731-.452,1.329-1,1.329s-1-.6-1-1.329V78.329c0-.731.452-1.329,1-1.329s1,.6,1,1.329Z" transform="translate(-87.427 -24.966)" fill="#222d39"/><g transform="matrix(1, 0, 0, 1, 0, 0)" filter="url(#s)"><path d="M264.993,188.6c0,.731-.452,1.329-1,1.329s-1-.6-1-1.329V78.329c0-.731.452-1.329,1-1.329s1,.6,1,1.329Z" transform="translate(-87.43 -24.97)" fill="#fff"/></g></g><g data-type="innerShadowGroup"><path d="M296.493,179.809c0,.731-.452,1.329-1,1.329s-1-.6-1-1.329v-52.48c0-.731.452-1.329,1-1.329s1,.6,1,1.329Z" transform="translate(-98.001 -41.415)" fill="#222d39"/><g transform="matrix(1, 0, 0, 1, 0, 0)" filter="url(#v)"><path d="M296.493,179.809c0,.731-.452,1.329-1,1.329s-1-.6-1-1.329v-52.48c0-.731.452-1.329,1-1.329s1,.6,1,1.329Z" transform="translate(-98 -41.42)" fill="#fff"/></g></g></g></svg>